<?xml version="1.0" encoding="UTF-8" standalone="no"?>
<svg
   xmlns:dc="http://purl.org/dc/elements/1.1/"
   xmlns:cc="http://creativecommons.org/ns#"
   xmlns:rdf="http://www.w3.org/1999/02/22-rdf-syntax-ns#"
   xmlns:svg="http://www.w3.org/2000/svg"
   xmlns="http://www.w3.org/2000/svg"
   xmlns:sodipodi="http://sodipodi.sourceforge.net/DTD/sodipodi-0.dtd"
   xmlns:inkscape="http://www.inkscape.org/namespaces/inkscape"
   enable-background="new 0 0 24 24"
   height="512"
   viewBox="0 0 24 24"
   width="512"
   version="1.1"
   id="svg6"
   sodipodi:docname="point.svg"
   inkscape:version="0.92.1 r15371">
  <metadata
     id="metadata12">
    <rdf:RDF>
      <cc:Work
         rdf:about="">
        <dc:format>image/svg+xml</dc:format>
        <dc:type
           rdf:resource="http://purl.org/dc/dcmitype/StillImage" />
      </cc:Work>
    </rdf:RDF>
  </metadata>
  <defs
     id="defs10" />
  <sodipodi:namedview
     pagecolor="#ffffff"
     bordercolor="#666666"
     borderopacity="1"
     objecttolerance="10"
     gridtolerance="10"
     guidetolerance="10"
     inkscape:pageopacity="0"
     inkscape:pageshadow="2"
     inkscape:window-width="640"
     inkscape:window-height="480"
     id="namedview8"
     showgrid="false"
     inkscape:zoom="0.4609375"
     inkscape:cx="256"
     inkscape:cy="256"
     inkscape:window-x="0"
     inkscape:window-y="0"
     inkscape:window-maximized="0"
     inkscape:current-layer="svg6" />
  <circle
     cx="12"
     cy="12"
     r="5"
     id="circle2"
     style="fill:#ffffff" />
  <path
     d="m23 11h-1.051c-.47-4.717-4.232-8.479-8.949-8.949v-1.051c0-.552-.447-1-1-1s-1 .448-1 1v1.051c-4.717.47-8.479 4.232-8.949 8.949h-1.051c-.553 0-1 .448-1 1s.447 1 1 1h1.051c.471 4.717 4.232 8.479 8.949 8.949v1.051c0 .552.447 1 1 1s1-.448 1-1v-1.051c4.717-.471 8.479-4.232 8.949-8.949h1.051c.553 0 1-.448 1-1s-.447-1-1-1zm-10.014 8.933c-.036-.519-.457-.933-.986-.933s-.95.414-.986.933c-3.622-.448-6.498-3.324-6.946-6.946.519-.037.932-.459.932-.987s-.413-.95-.933-.986c.448-3.622 3.324-6.498 6.946-6.946.037.518.458.932.987.932s.95-.414.986-.933c3.622.448 6.498 3.324 6.946 6.946-.519.037-.932.459-.932.987s.413.95.933.986c-.449 3.623-3.324 6.498-6.947 6.947z"
     id="path4"
     style="fill:#ffffff" />
</svg>
