<?xml version="1.0" encoding="UTF-8" standalone="no"?>
<!-- Generator: Adobe Illustrator 18.1.1, SVG Export Plug-In . SVG Version: 6.00 Build 0)  -->

<svg
   xmlns:dc="http://purl.org/dc/elements/1.1/"
   xmlns:cc="http://creativecommons.org/ns#"
   xmlns:rdf="http://www.w3.org/1999/02/22-rdf-syntax-ns#"
   xmlns:svg="http://www.w3.org/2000/svg"
   xmlns="http://www.w3.org/2000/svg"
   xmlns:sodipodi="http://sodipodi.sourceforge.net/DTD/sodipodi-0.dtd"
   xmlns:inkscape="http://www.inkscape.org/namespaces/inkscape"
   version="1.1"
   id="Capa_1"
   x="0px"
   y="0px"
   viewBox="0 0 339.921 339.921"
   style="enable-background:new 0 0 339.921 339.921;"
   xml:space="preserve"
   sodipodi:docname="search.svg"
   inkscape:version="0.92.1 r15371"><metadata
   id="metadata41"><rdf:RDF><cc:Work
       rdf:about=""><dc:format>image/svg+xml</dc:format><dc:type
         rdf:resource="http://purl.org/dc/dcmitype/StillImage" /></cc:Work></rdf:RDF></metadata><defs
   id="defs39" /><sodipodi:namedview
   pagecolor="#ffffff"
   bordercolor="#666666"
   borderopacity="1"
   objecttolerance="10"
   gridtolerance="10"
   guidetolerance="10"
   inkscape:pageopacity="0"
   inkscape:pageshadow="2"
   inkscape:window-width="640"
   inkscape:window-height="480"
   id="namedview37"
   showgrid="false"
   inkscape:zoom="0.69427899"
   inkscape:cx="169.96049"
   inkscape:cy="169.96049"
   inkscape:window-x="0"
   inkscape:window-y="0"
   inkscape:window-maximized="0"
   inkscape:current-layer="Capa_1" />
<g
   id="g4"
   style="fill:#ffffff">
	<path
   style="fill:#ffffff"
   d="M335.165,292.071l-81.385-84.077c-5.836-6.032-13.13-8.447-16.29-5.363   c-3.171,3.062-10.47,0.653-16.306-5.379l-1.164-1.207c36.425-47.907,32.89-116.499-10.851-160.24   c-47.739-47.739-125.142-47.739-172.875,0c-47.739,47.739-47.739,125.131,0,172.87c44.486,44.492,114.699,47.472,162.704,9.045   l0.511,0.533c5.825,6.032,7.995,13.402,4.814,16.469c-3.166,3.068-1.012,10.443,4.83,16.464l81.341,84.11   c5.836,6.016,15.452,6.195,21.49,0.354l22.828-22.088C340.827,307.735,340.99,298.125,335.165,292.071z M182.306,181.81   c-32.852,32.857-86.312,32.857-119.159,0.011c-32.852-32.852-32.847-86.318,0-119.164c32.847-32.852,86.307-32.847,119.148,0.005   C215.152,95.509,215.152,148.964,182.306,181.81z"
   id="path2" />
</g>
<g
   id="g6"
   style="fill:#ffffff">
</g>
<g
   id="g8"
   style="fill:#ffffff">
</g>
<g
   id="g10"
   style="fill:#ffffff">
</g>
<g
   id="g12"
   style="fill:#ffffff">
</g>
<g
   id="g14"
   style="fill:#ffffff">
</g>
<g
   id="g16"
   style="fill:#ffffff">
</g>
<g
   id="g18"
   style="fill:#ffffff">
</g>
<g
   id="g20"
   style="fill:#ffffff">
</g>
<g
   id="g22"
   style="fill:#ffffff">
</g>
<g
   id="g24"
   style="fill:#ffffff">
</g>
<g
   id="g26"
   style="fill:#ffffff">
</g>
<g
   id="g28"
   style="fill:#ffffff">
</g>
<g
   id="g30"
   style="fill:#ffffff">
</g>
<g
   id="g32"
   style="fill:#ffffff">
</g>
<g
   id="g34"
   style="fill:#ffffff">
</g>
</svg>